<svg xmlns="http://www.w3.org/2000/svg" width="60.106" height="60.106" viewBox="0 0 60.106 60.106">
  <path id="instagram" d="M30.053,0C21.9,0,20.872.038,17.668.18a22.144,22.144,0,0,0-7.3,1.4A14.715,14.715,0,0,0,5.045,5.045a14.752,14.752,0,0,0-3.467,5.323,22.014,22.014,0,0,0-1.4,7.288C.038,20.868,0,21.89,0,30.057s.038,9.181.18,12.386a22.14,22.14,0,0,0,1.4,7.3,15.386,15.386,0,0,0,8.787,8.791,22.064,22.064,0,0,0,7.3,1.4c3.208.143,4.23.18,12.393.18s9.181-.038,12.389-.18a22.186,22.186,0,0,0,7.3-1.4,15.386,15.386,0,0,0,8.787-8.791,22.237,22.237,0,0,0,1.4-7.3c.143-3.2.18-4.226.18-12.389s-.038-9.185-.18-12.393a22.212,22.212,0,0,0-1.4-7.292,14.749,14.749,0,0,0-3.467-5.323,14.692,14.692,0,0,0-5.323-3.467,22.109,22.109,0,0,0-7.3-1.4C39.231.038,38.213,0,30.046,0h.011ZM27.36,5.417h2.7c8.024,0,8.975.026,12.141.173a16.655,16.655,0,0,1,5.582,1.033,9.325,9.325,0,0,1,3.456,2.25,9.285,9.285,0,0,1,2.246,3.456,16.507,16.507,0,0,1,1.033,5.579c.147,3.167.177,4.117.177,12.138s-.03,8.975-.177,12.141a16.626,16.626,0,0,1-1.033,5.579,9.961,9.961,0,0,1-5.706,5.7A16.534,16.534,0,0,1,42.2,54.5c-3.167.143-4.117.177-12.141.177s-8.978-.034-12.145-.177a16.6,16.6,0,0,1-5.579-1.037,9.309,9.309,0,0,1-3.456-2.246,9.317,9.317,0,0,1-2.254-3.456A16.6,16.6,0,0,1,5.59,42.183c-.143-3.167-.173-4.117-.173-12.145s.03-8.971.173-12.138a16.628,16.628,0,0,1,1.037-5.582,9.325,9.325,0,0,1,2.25-3.456,9.285,9.285,0,0,1,3.456-2.246,16.6,16.6,0,0,1,5.579-1.037c2.772-.128,3.847-.165,9.448-.169v.008ZM46.1,10.406A3.606,3.606,0,1,0,49.7,14.012,3.606,3.606,0,0,0,46.1,10.406ZM30.057,14.621A15.435,15.435,0,1,0,45.493,30.056,15.433,15.433,0,0,0,30.057,14.621Zm0,5.413A10.019,10.019,0,1,1,20.038,30.053,10.019,10.019,0,0,1,30.057,20.034Z" fill="#0d6efd"/>
</svg>
