<svg xmlns="http://www.w3.org/2000/svg" width="73.364" height="59.612" viewBox="0 0 73.364 59.612">
  <path id="twitter" d="M23.045,61.611c27.686,0,42.831-22.94,42.831-42.8,0-.642,0-1.293-.028-1.935a30.652,30.652,0,0,0,7.515-7.8A30.529,30.529,0,0,1,64.7,11.448a15.136,15.136,0,0,0,6.635-8.331,29.955,29.955,0,0,1-9.569,3.636A15.067,15.067,0,0,0,36.109,20.481,42.757,42.757,0,0,1,5.08,4.759,15.081,15.081,0,0,0,9.748,24.851,15.237,15.237,0,0,1,2.935,22.98v.206A15.076,15.076,0,0,0,15,37.942a14.686,14.686,0,0,1-3.966.527,14.81,14.81,0,0,1-2.815-.261A15.053,15.053,0,0,0,22.284,48.648,30.208,30.208,0,0,1,3.576,55.1,28.977,28.977,0,0,1,0,54.894a42.844,42.844,0,0,0,23.045,6.717Z" transform="translate(0 -1.999)" fill="#0d6efd"/>
</svg>
